<svg width="174" height="50" viewBox="0 0 174 50" fill="none" xmlns="http://www.w3.org/2000/svg">
<path d="M166.63 50H6.59383C3.07463 50 0.192383 47.1859 0.192383 43.75V6.25C0.192383 2.81407 3.07463 2.64247e-06 6.59383 2.64247e-06H166.63C170.149 2.64247e-06 173.031 2.81407 173.031 6.25V43.75C173.031 47.1859 170.149 50 166.63 50Z" fill="black"/>
<path d="M166.63 1.00156C169.594 1.00156 172.006 3.35625 172.006 6.25V43.75C172.006 46.6438 169.594 48.9984 166.63 48.9984H6.59383C3.62996 48.9984 1.21821 46.6438 1.21821 43.75V6.25C1.21821 3.35625 3.62996 1.00156 6.59383 1.00156H166.63ZM166.63 2.64247e-06H6.59383C3.07463 2.64247e-06 0.192383 2.81407 0.192383 6.25V43.75C0.192383 47.1859 3.07463 50 6.59383 50H166.63C170.149 50 173.031 47.1859 173.031 43.75V6.25C173.031 2.81407 170.149 2.64247e-06 166.63 2.64247e-06Z" fill="#A6A6A6"/>
<path d="M60.9026 12.8016C60.9026 13.8453 60.5826 14.6813 59.952 15.3047C59.2271 16.0438 58.2829 16.4156 57.1258 16.4156C56.0199 16.4156 55.0757 16.0375 54.3012 15.2922C53.525 14.5359 53.1377 13.6078 53.1377 12.4969C53.1377 11.3859 53.525 10.4578 54.3012 9.70781C55.0757 8.95625 56.0199 8.57812 57.1258 8.57812C57.6763 8.57812 58.2012 8.68906 58.7021 8.89531C59.2015 9.10312 59.608 9.38437 59.9024 9.73125L59.2335 10.3906C58.7198 9.79844 58.0204 9.50625 57.1258 9.50625C56.3192 9.50625 55.6199 9.78125 55.0261 10.3359C54.4388 10.8922 54.1443 11.6125 54.1443 12.4969C54.1443 13.3812 54.4388 14.1078 55.0261 14.6641C55.6199 15.2125 56.3192 15.4937 57.1258 15.4937C57.982 15.4937 58.7022 15.2125 59.2703 14.6578C59.6448 14.2906 59.8576 13.7844 59.9136 13.1375H57.1258V12.2344H60.845C60.8898 12.4297 60.9026 12.6187 60.9026 12.8016Z" fill="white" stroke="white" stroke-width="0.153846" stroke-miterlimit="10"/>
<path d="M66.801 9.67227H63.3074V12.0473H66.4569V12.9504H63.3074V15.3254H66.801V16.2457H62.3184V8.75195H66.801V9.67227Z" fill="white" stroke="white" stroke-width="0.153846" stroke-miterlimit="10"/>
<path d="M70.9669 16.2457H69.9778V9.67227H67.835V8.75195H73.1113V9.67227H70.9669V16.2457Z" fill="white" stroke="white" stroke-width="0.153846" stroke-miterlimit="10"/>
<path d="M76.9268 16.2457V8.75195H77.9142V16.2457H76.9268Z" fill="white" stroke="white" stroke-width="0.153846" stroke-miterlimit="10"/>
<path d="M82.2921 16.2457H81.311V9.67227H79.1602V8.75195H84.4429V9.67227H82.2921V16.2457Z" fill="white" stroke="white" stroke-width="0.153846" stroke-miterlimit="10"/>
<path d="M94.4317 15.2797C93.6748 16.0375 92.7369 16.4156 91.6183 16.4156C90.4932 16.4156 89.5554 16.0375 88.7984 15.2797C88.0431 14.5234 87.667 13.5953 87.667 12.4969C87.667 11.3984 88.0431 10.4703 88.7984 9.71406C89.5554 8.95625 90.4932 8.57812 91.6183 8.57812C92.7305 8.57812 93.6684 8.95625 94.4253 9.72031C95.1871 10.4828 95.5632 11.4047 95.5632 12.4969C95.5632 13.5953 95.1871 14.5234 94.4317 15.2797ZM89.5298 14.6516C90.0995 15.2125 90.7925 15.4937 91.6183 15.4937C92.4377 15.4937 93.137 15.2125 93.7004 14.6516C94.2685 14.0906 94.5565 13.3703 94.5565 12.4969C94.5565 11.6234 94.2685 10.9031 93.7004 10.3422C93.137 9.78125 92.4377 9.5 91.6183 9.5C90.7925 9.5 90.0995 9.78125 89.5298 10.3422C88.9617 10.9031 88.6736 11.6234 88.6736 12.4969C88.6736 13.3703 88.9617 14.0906 89.5298 14.6516Z" fill="white" stroke="white" stroke-width="0.153846" stroke-miterlimit="10"/>
<path d="M96.9521 16.2457V8.75195H98.1524L101.884 14.5801H101.928L101.884 13.1395V8.75195H102.872V16.2457H101.841L97.9332 10.1301H97.89L97.9332 11.577V16.2457H96.9521Z" fill="white" stroke="white" stroke-width="0.153846" stroke-miterlimit="10"/>
<path d="M87.4238 27.1895C84.4167 27.1895 81.9602 29.4238 81.9602 32.5066C81.9602 35.5645 84.4167 37.8223 87.4238 37.8223C90.4373 37.8223 92.8938 35.5645 92.8938 32.5066C92.8938 29.4238 90.4373 27.1895 87.4238 27.1895ZM87.4238 35.7285C85.7738 35.7285 84.3543 34.3988 84.3543 32.5066C84.3543 30.5895 85.7738 29.2832 87.4238 29.2832C89.0738 29.2832 90.4997 30.5895 90.4997 32.5066C90.4997 34.3988 89.0738 35.7285 87.4238 35.7285ZM75.5027 27.1895C72.4892 27.1895 70.0391 29.4238 70.0391 32.5066C70.0391 35.5645 72.4892 37.8223 75.5027 37.8223C78.5146 37.8223 80.9663 35.5645 80.9663 32.5066C80.9663 29.4238 78.5146 27.1895 75.5027 27.1895ZM75.5027 35.7285C73.8511 35.7285 72.4268 34.3988 72.4268 32.5066C72.4268 30.5895 73.8511 29.2832 75.5027 29.2832C77.1527 29.2832 78.5722 30.5895 78.5722 32.5066C78.5722 34.3988 77.1527 35.7285 75.5027 35.7285ZM61.3171 28.8191V31.0785H66.8432C66.6815 32.341 66.2494 33.2691 65.5869 33.916C64.7803 34.6973 63.524 35.5645 61.3171 35.5645C57.9163 35.5645 55.2533 32.8848 55.2533 29.5645C55.2533 26.2441 57.9163 23.5645 61.3171 23.5645C63.1559 23.5645 64.4938 24.266 65.4812 25.1754L67.112 23.5832C65.7309 22.2957 63.8937 21.3066 61.3171 21.3066C56.6537 21.3066 52.7344 25.0113 52.7344 29.5645C52.7344 34.1176 56.6537 37.8223 61.3171 37.8223C63.8377 37.8223 65.7309 37.016 67.2192 35.5035C68.7444 34.0145 69.2197 31.9207 69.2197 30.2301C69.2197 29.7051 69.1749 29.2223 69.0949 28.8191H61.3171ZM119.324 30.5707C118.874 29.3816 117.487 27.1895 114.66 27.1895C111.86 27.1895 109.528 29.3441 109.528 32.5066C109.528 35.4848 111.836 37.8223 114.929 37.8223C117.431 37.8223 118.874 36.3332 119.468 35.466L117.611 34.2582C116.992 35.1426 116.149 35.7285 114.929 35.7285C113.718 35.7285 112.849 35.1863 112.292 34.1176L119.575 31.1754L119.324 30.5707ZM111.898 32.341C111.836 30.291 113.529 29.241 114.742 29.241C115.693 29.241 116.499 29.7051 116.768 30.3691L111.898 32.341ZM105.978 37.4988H108.373V21.8738H105.978V37.4988ZM102.057 28.3738H101.977C101.44 27.752 100.414 27.1895 99.1144 27.1895C96.3874 27.1895 93.8941 29.527 93.8941 32.5238C93.8941 35.5035 96.3874 37.8223 99.1144 37.8223C100.414 37.8223 101.44 37.2551 101.977 36.6145H102.057V37.377C102.057 39.4098 100.945 40.502 99.1512 40.502C97.6885 40.502 96.7811 39.4707 96.4066 38.6035L94.3246 39.452C94.9247 40.8613 96.5138 42.5957 99.1512 42.5957C101.958 42.5957 104.327 40.9832 104.327 37.0598V27.5129H102.057V28.3738ZM99.3193 35.7285C97.6693 35.7285 96.2882 34.3801 96.2882 32.5238C96.2882 30.6504 97.6693 29.2832 99.3193 29.2832C100.945 29.2832 102.227 30.6504 102.227 32.5238C102.227 34.3801 100.945 35.7285 99.3193 35.7285ZM130.533 21.8738H124.807V37.4988H127.194V31.5785H130.533C133.185 31.5785 135.785 29.7051 135.785 26.7254C135.785 23.7473 133.178 21.8738 130.533 21.8738ZM130.595 29.4051H127.194V24.0473H130.595C132.378 24.0473 133.396 25.4926 133.396 26.7254C133.396 27.9348 132.378 29.4051 130.595 29.4051ZM145.355 27.1598C143.63 27.1598 141.836 27.9035 141.098 29.552L143.217 30.4191C143.673 29.552 144.512 29.2707 145.398 29.2707C146.637 29.2707 147.893 29.9973 147.913 31.2801V31.4441C147.481 31.2004 146.556 30.8395 145.418 30.8395C143.136 30.8395 140.81 32.066 140.81 34.3551C140.81 36.4488 142.679 37.7973 144.781 37.7973C146.387 37.7973 147.274 37.0895 147.831 36.266H147.913V37.4738H150.219V31.4801C150.219 28.7098 148.1 27.1598 145.355 27.1598ZM145.067 35.7223C144.286 35.7223 143.198 35.3441 143.198 34.3988C143.198 33.1895 144.555 32.7254 145.73 32.7254C146.781 32.7254 147.274 32.952 147.913 33.2504C147.725 34.6973 146.45 35.7223 145.067 35.7223ZM158.621 27.502L155.876 34.2754H155.794L152.957 27.502H150.382L154.645 36.9676L152.213 42.2348H154.708L161.277 27.502H158.621ZM137.097 37.4988H139.492V21.8738H137.097V37.4988Z" fill="white"/>
<path d="M13.5547 9.42422C13.1786 9.80859 12.9609 10.407 12.9609 11.182V38.8258C12.9609 39.6008 13.1786 40.1992 13.5547 40.5836L13.6475 40.668L29.5135 25.1836V24.818L13.6475 9.33359L13.5547 9.42422Z" fill="url(#paint0_linear_13956_35996)"/>
<path d="M34.7955 30.3477L29.5127 25.1836V24.818L34.8019 19.6539L34.9203 19.7211L41.1841 23.2008C42.9717 24.1883 42.9717 25.8133 41.1841 26.807L34.9203 30.2805L34.7955 30.3477Z" fill="url(#paint1_linear_13956_35996)"/>
<path d="M34.9211 30.2796L29.5135 24.9999L13.5547 40.5827C14.1484 41.1921 15.1166 41.2655 16.2177 40.6562L34.9211 30.2796Z" fill="url(#paint2_linear_13956_35996)"/>
<path d="M34.9211 19.7203L16.2177 9.34375C15.1166 8.74063 14.1484 8.81406 13.5547 9.42344L29.5135 25L34.9211 19.7203Z" fill="url(#paint3_linear_13956_35996)"/>
<defs>
<linearGradient id="paint0_linear_13956_35996" x1="28.1048" y1="39.1137" x2="7.13277" y2="17.6335" gradientUnits="userSpaceOnUse">
<stop stop-color="#00A0FF"/>
<stop offset="0.0066" stop-color="#00A1FF"/>
<stop offset="0.2601" stop-color="#00BEFF"/>
<stop offset="0.5122" stop-color="#00D2FF"/>
<stop offset="0.7604" stop-color="#00DFFF"/>
<stop offset="1" stop-color="#00E3FF"/>
</linearGradient>
<linearGradient id="paint1_linear_13956_35996" x1="43.5119" y1="24.999" x2="12.5329" y2="24.999" gradientUnits="userSpaceOnUse">
<stop stop-color="#FFE000"/>
<stop offset="0.4087" stop-color="#FFBD00"/>
<stop offset="0.7754" stop-color="#FFA500"/>
<stop offset="1" stop-color="#FF9C00"/>
</linearGradient>
<linearGradient id="paint2_linear_13956_35996" x1="31.9806" y1="22.1298" x2="3.54089" y2="-6.99907" gradientUnits="userSpaceOnUse">
<stop stop-color="#FF3A44"/>
<stop offset="1" stop-color="#C31162"/>
</linearGradient>
<linearGradient id="paint3_linear_13956_35996" x1="9.53753" y1="49.7798" x2="22.2371" y2="36.7725" gradientUnits="userSpaceOnUse">
<stop stop-color="#32A071"/>
<stop offset="0.0685" stop-color="#2DA771"/>
<stop offset="0.4762" stop-color="#15CF74"/>
<stop offset="0.8009" stop-color="#06E775"/>
<stop offset="1" stop-color="#00F076"/>
</linearGradient>
</defs>
</svg>
