<svg width="174" height="50" viewBox="0 0 174 50" fill="none" xmlns="http://www.w3.org/2000/svg">
<path d="M172.112 44.2337C172.112 46.8982 169.909 49.0566 167.183 49.0566H5.89304C3.16907 49.0566 0.958008 46.8982 0.958008 44.2337V5.77256C0.958008 3.10926 3.16907 0.943359 5.89304 0.943359H167.182C169.909 0.943359 172.111 3.10926 172.111 5.77256L172.112 44.2337Z" fill="black"/>
<path d="M166.667 1.00156C169.635 1.00156 172.05 3.35625 172.05 6.25V43.75C172.05 46.6437 169.635 48.9984 166.667 48.9984H6.41026C3.44231 48.9984 1.02724 46.6437 1.02724 43.75V6.25C1.02724 3.35625 3.44231 1.00156 6.41026 1.00156H166.667ZM166.667 -2.0817e-06H6.41026C2.88622 -2.0817e-06 0 2.81406 0 6.25V43.75C0 47.1859 2.88622 50 6.41026 50H166.667C170.191 50 173.077 47.1859 173.077 43.75V6.25C173.077 2.81406 170.191 -2.0817e-06 166.667 -2.0817e-06Z" fill="#A6A6A6"/>
<path d="M38.6281 24.7302C38.5909 20.7015 42.0114 18.7415 42.1679 18.6502C40.2307 15.8965 37.2281 15.5202 36.173 15.4902C33.6512 15.2315 31.205 16.9615 29.9204 16.9615C28.6102 16.9615 26.632 15.5152 24.4999 15.5577C21.7563 15.599 19.1896 17.1477 17.782 19.5527C14.8768 24.4565 17.0435 31.6627 19.8268 35.6265C21.2191 37.5677 22.8461 39.7352 24.9755 39.659C27.0589 39.5752 27.8371 38.364 30.3512 38.364C32.8422 38.364 33.573 39.659 35.7448 39.6102C37.9807 39.5752 39.3884 37.6602 40.732 35.7015C42.3409 33.4765 42.9871 31.2852 43.0127 31.1727C42.9602 31.1552 38.6704 29.559 38.6281 24.7302Z" fill="white"/>
<path d="M34.5255 12.8827C35.6461 11.5165 36.4127 9.65773 36.1999 7.77148C34.5781 7.84148 32.5499 8.86523 31.382 10.2015C30.3486 11.379 29.4255 13.309 29.664 15.124C31.4858 15.2565 33.3563 14.2277 34.5255 12.8827Z" fill="white"/>
<path d="M68.772 39.3752H65.8605L64.2656 34.489H58.722L57.2028 39.3752H54.3682L59.8605 22.7402H63.2528L68.772 39.3752ZM63.7848 32.439L62.3425 28.0952C62.19 27.6515 61.9041 26.6065 61.4823 24.9615H61.431C61.263 25.669 60.9925 26.714 60.6207 28.0952L59.2041 32.439H63.7848Z" fill="white"/>
<path d="M82.8992 33.231C82.8992 35.271 82.3338 36.8835 81.203 38.0673C80.1902 39.121 78.9325 39.6473 77.4312 39.6473C75.8107 39.6473 74.6466 39.0798 73.9377 37.9448H73.8864V44.2635H71.153V31.3298C71.153 30.0473 71.1184 28.731 71.0518 27.381H73.4556L73.6082 29.2823H73.6595C74.571 27.8498 75.9543 27.1348 77.8107 27.1348C79.262 27.1348 80.4736 27.6935 81.4428 28.8123C82.4146 29.9323 82.8992 31.4048 82.8992 33.231ZM80.1146 33.3285C80.1146 32.161 79.8453 31.1985 79.3043 30.441C78.7133 29.651 77.9197 29.256 76.9248 29.256C76.2505 29.256 75.6377 29.476 75.0902 29.9098C74.5415 30.3473 74.1825 30.9185 74.0146 31.626C73.93 31.956 73.8877 32.226 73.8877 32.4385V34.4385C73.8877 35.311 74.162 36.0473 74.7107 36.6485C75.2595 37.2498 75.9723 37.5498 76.8492 37.5498C77.8787 37.5498 78.68 37.1623 79.253 36.3898C79.8274 35.616 80.1146 34.596 80.1146 33.3285Z" fill="white"/>
<path d="M97.0473 33.231C97.0473 35.271 96.4819 36.8835 95.3499 38.0673C94.3384 39.121 93.0807 39.6473 91.5794 39.6473C89.9589 39.6473 88.7948 39.0798 88.0871 37.9448H88.0358V44.2635H85.3025V31.3298C85.3025 30.0473 85.2678 28.731 85.2012 27.381H87.605L87.7576 29.2823H87.8089C88.7191 27.8498 90.1025 27.1348 91.9602 27.1348C93.4102 27.1348 94.6217 27.6935 95.5935 28.8123C96.5614 29.9323 97.0473 31.4048 97.0473 33.231ZM94.2627 33.3285C94.2627 32.161 93.9922 31.1985 93.4512 30.441C92.8601 29.651 92.0691 29.256 91.073 29.256C90.3973 29.256 89.7858 29.476 89.2371 29.9098C88.6884 30.3473 88.3307 30.9185 88.1627 31.626C88.0794 31.956 88.0358 32.226 88.0358 32.4385V34.4385C88.0358 35.311 88.3101 36.0473 88.8563 36.6485C89.405 37.2485 90.1178 37.5498 90.9973 37.5498C92.0268 37.5498 92.8281 37.1623 93.4012 36.3898C93.9755 35.616 94.2627 34.596 94.2627 33.3285Z" fill="white"/>
<path d="M112.867 34.7098C112.867 36.1248 112.363 37.2761 111.351 38.1648C110.24 39.1361 108.692 39.6211 106.704 39.6211C104.868 39.6211 103.396 39.2761 102.282 38.5848L102.916 36.3636C104.116 37.0711 105.432 37.4261 106.867 37.4261C107.896 37.4261 108.698 37.1986 109.273 36.7461C109.846 36.2936 110.132 35.6861 110.132 34.9286C110.132 34.2536 109.896 33.6848 109.423 33.2236C108.953 32.7623 108.167 32.3336 107.069 31.9373C104.082 30.8511 102.59 29.2598 102.59 27.1673C102.59 25.7998 103.113 24.6786 104.16 23.8061C105.204 22.9323 106.596 22.4961 108.337 22.4961C109.89 22.4961 111.18 22.7598 112.209 23.2861L111.526 25.4586C110.564 24.9486 109.477 24.6936 108.26 24.6936C107.299 24.6936 106.548 24.9248 106.009 25.3848C105.554 25.7961 105.326 26.2973 105.326 26.8911C105.326 27.5486 105.586 28.0923 106.109 28.5198C106.564 28.9148 107.391 29.3423 108.591 29.8036C110.059 30.3798 111.137 31.0536 111.831 31.8261C112.522 32.5961 112.867 33.5598 112.867 34.7098Z" fill="white"/>
<path d="M121.905 29.3833H118.893V35.207C118.893 36.6883 119.423 37.4283 120.487 37.4283C120.976 37.4283 121.381 37.387 121.702 37.3045L121.777 39.3283C121.239 39.5245 120.53 39.6233 119.652 39.6233C118.572 39.6233 117.728 39.302 117.119 38.6608C116.513 38.0183 116.208 36.9408 116.208 35.427V29.3808H114.413V27.3808H116.208V25.1845L118.893 24.3945V27.3808H121.905V29.3833Z" fill="white"/>
<path d="M135.499 33.2824C135.499 35.1262 134.958 36.6399 133.879 37.8237C132.747 39.0424 131.244 39.6499 129.371 39.6499C127.566 39.6499 126.129 39.0662 125.057 37.8987C123.985 36.7312 123.449 35.2574 123.449 33.4812C123.449 31.6224 124 30.0999 125.107 28.9162C126.211 27.7312 127.7 27.1387 129.574 27.1387C131.379 27.1387 132.831 27.7224 133.927 28.8912C134.976 30.0249 135.499 31.4887 135.499 33.2824ZM132.663 33.3687C132.663 32.2624 132.421 31.3137 131.93 30.5224C131.357 29.5649 130.538 29.0874 129.476 29.0874C128.377 29.0874 127.543 29.5662 126.97 30.5224C126.479 31.3149 126.236 32.2787 126.236 33.4187C126.236 34.5249 126.479 35.4737 126.97 36.2637C127.561 37.2212 128.386 37.6987 129.452 37.6987C130.495 37.6987 131.315 37.2112 131.906 36.2387C132.409 35.4324 132.663 34.4737 132.663 33.3687Z" fill="white"/>
<path d="M144.38 29.7248C144.109 29.676 143.821 29.651 143.518 29.651C142.557 29.651 141.813 30.0048 141.29 30.7135C140.835 31.3385 140.607 32.1285 140.607 33.0823V39.376H137.875L137.9 31.1585C137.9 29.776 137.866 28.5173 137.798 27.3823H140.179L140.279 29.6773H140.354C140.643 28.8885 141.098 28.2535 141.721 27.7773C142.33 27.3485 142.988 27.1348 143.697 27.1348C143.949 27.1348 144.177 27.1523 144.38 27.1835V29.7248Z" fill="white"/>
<path d="M156.604 32.8101C156.604 33.2876 156.572 33.6901 156.504 34.0188H148.304C148.336 35.2038 148.732 36.1101 149.494 36.7351C150.185 37.2938 151.079 37.5738 152.176 37.5738C153.39 37.5738 154.498 37.3851 155.494 37.0063L155.922 38.8563C154.758 39.3513 153.384 39.5976 151.798 39.5976C149.89 39.5976 148.393 39.0501 147.303 37.9563C146.216 36.8626 145.671 35.3938 145.671 33.5513C145.671 31.7426 146.177 30.2363 147.191 29.0351C148.253 27.7526 149.688 27.1113 151.493 27.1113C153.266 27.1113 154.608 27.7526 155.52 29.0351C156.241 30.0538 156.604 31.3138 156.604 32.8101ZM153.998 32.1188C154.016 31.3288 153.838 30.6463 153.467 30.0701C152.994 29.3288 152.267 28.9588 151.289 28.9588C150.395 28.9588 149.668 29.3201 149.113 30.0451C148.658 30.6213 148.388 31.3126 148.304 32.1176H153.998V32.1188Z" fill="white"/>
<path d="M62.881 12.5084C62.881 13.9797 62.4284 15.0872 61.5246 15.8309C60.6874 16.5172 59.4976 16.8609 57.9566 16.8609C57.1925 16.8609 56.5386 16.8284 55.9912 16.7634V8.72469C56.7053 8.61219 57.4745 8.55469 58.3053 8.55469C59.7733 8.55469 60.8797 8.86594 61.6258 9.48844C62.4617 10.1922 62.881 11.1984 62.881 12.5084ZM61.4643 12.5447C61.4643 11.5909 61.2053 10.8597 60.6874 10.3497C60.1694 9.84094 59.413 9.58594 58.4169 9.58594C57.9938 9.58594 57.6335 9.61344 57.3348 9.67094V15.7822C57.5002 15.8072 57.8028 15.8184 58.2425 15.8184C59.2707 15.8184 60.0643 15.5397 60.6233 14.9822C61.1822 14.4247 61.4643 13.6122 61.4643 12.5447Z" fill="white"/>
<path d="M70.3929 13.7948C70.3929 14.7011 70.1275 15.4436 69.5967 16.0261C69.0403 16.6248 68.3031 16.9236 67.3826 16.9236C66.4954 16.9236 65.789 16.6373 65.2621 16.0623C64.7365 15.4886 64.4736 14.7648 64.4736 13.8923C64.4736 12.9798 64.7441 12.2311 65.2877 11.6498C65.8313 11.0686 66.5621 10.7773 67.4826 10.7773C68.3698 10.7773 69.0826 11.0636 69.6224 11.6373C70.1352 12.1948 70.3929 12.9148 70.3929 13.7948ZM68.9993 13.8373C68.9993 13.2936 68.8788 12.8273 68.639 12.4386C68.357 11.9686 67.9557 11.7336 67.4339 11.7336C66.8942 11.7336 66.4839 11.9686 66.2018 12.4386C65.9608 12.8273 65.8416 13.3011 65.8416 13.8611C65.8416 14.4048 65.9621 14.8711 66.2018 15.2598C66.4929 15.7298 66.898 15.9648 67.4211 15.9648C67.9339 15.9648 68.3365 15.7261 68.6262 15.2473C68.8749 14.8511 68.9993 14.3811 68.9993 13.8373Z" fill="white"/>
<path d="M80.4654 10.8965L78.5744 16.789H77.3436L76.5603 14.2302C76.3615 13.5915 76.2 12.9565 76.0744 12.3265H76.05C75.9333 12.974 75.7718 13.6077 75.5641 14.2302L74.7321 16.789H73.4872L71.709 10.8965H73.0898L73.7731 13.6977C73.9385 14.3602 74.0744 14.9915 74.1833 15.589H74.2077C74.3077 15.0965 74.4731 14.469 74.7064 13.7102L75.5641 10.8977H76.659L77.4808 13.6502C77.6795 14.3215 77.841 14.9677 77.9654 15.5902H78.0026C78.0936 14.984 78.2308 14.3377 78.4128 13.6502L79.1462 10.8977H80.4654V10.8965Z" fill="white"/>
<path d="M87.4332 16.7897H86.0896V13.4147C86.0896 12.3747 85.6844 11.8547 84.8716 11.8547C84.4729 11.8547 84.1511 11.9972 83.9011 12.2834C83.6537 12.5697 83.528 12.9072 83.528 13.2934V16.7884H82.1845V12.5809C82.1845 12.0634 82.1678 11.5022 82.1357 10.8947H83.3165L83.3793 11.8159H83.4165C83.5729 11.5297 83.8063 11.2934 84.1127 11.1047C84.4768 10.8847 84.8844 10.7734 85.3306 10.7734C85.8947 10.7734 86.3639 10.9509 86.737 11.3072C87.2011 11.7434 87.4332 12.3947 87.4332 13.2597V16.7897Z" fill="white"/>
<path d="M91.1382 16.7916H89.7959V8.19531H91.1382V16.7916Z" fill="white"/>
<path d="M99.0423 13.7948C99.0423 14.7011 98.7769 15.4436 98.2461 16.0261C97.6897 16.6248 96.9513 16.9236 96.032 16.9236C95.1436 16.9236 94.4371 16.6373 93.9115 16.0623C93.3859 15.4886 93.123 14.7648 93.123 13.8923C93.123 12.9798 93.3936 12.2311 93.9372 11.6498C94.4807 11.0686 95.2115 10.7773 96.1307 10.7773C97.0192 10.7773 97.7307 11.0636 98.2718 11.6373C98.7846 12.1948 99.0423 12.9148 99.0423 13.7948ZM97.6474 13.8373C97.6474 13.2936 97.5269 12.8273 97.2872 12.4386C97.0064 11.9686 96.6038 11.7336 96.0833 11.7336C95.5423 11.7336 95.132 11.9686 94.8513 12.4386C94.6102 12.8273 94.491 13.3011 94.491 13.8611C94.491 14.4048 94.6115 14.8711 94.8513 15.2598C95.1423 15.7298 95.5474 15.9648 96.0705 15.9648C96.5833 15.9648 96.9846 15.7261 97.2743 15.2473C97.5243 14.8511 97.6474 14.3811 97.6474 13.8373Z" fill="white"/>
<path d="M105.546 16.7898H104.34L104.24 16.1111H104.203C103.79 16.6523 103.202 16.9236 102.438 16.9236C101.867 16.9236 101.405 16.7448 101.058 16.3898C100.743 16.0673 100.585 15.6661 100.585 15.1898C100.585 14.4698 100.893 13.9211 101.512 13.5411C102.13 13.1611 102.999 12.9748 104.118 12.9836V12.8736C104.118 12.0973 103.7 11.7098 102.863 11.7098C102.267 11.7098 101.741 11.8561 101.288 12.1461L101.014 11.2861C101.576 10.9473 102.27 10.7773 103.088 10.7773C104.667 10.7773 105.459 11.5898 105.459 13.2148V15.3848C105.459 15.9736 105.489 16.4423 105.546 16.7898ZM104.152 14.7648V13.8561C102.67 13.8311 101.929 14.2273 101.929 15.0436C101.929 15.3511 102.013 15.5811 102.186 15.7348C102.359 15.8886 102.58 15.9648 102.843 15.9648C103.138 15.9648 103.413 15.8736 103.664 15.6923C103.917 15.5098 104.072 15.2786 104.13 14.9948C104.144 14.9311 104.152 14.8536 104.152 14.7648Z" fill="white"/>
<path d="M113.179 16.7916H111.987L111.924 15.8453H111.887C111.506 16.5653 110.858 16.9253 109.946 16.9253C109.218 16.9253 108.611 16.6466 108.131 16.0891C107.65 15.5316 107.41 14.8078 107.41 13.9191C107.41 12.9653 107.67 12.1928 108.193 11.6028C108.7 11.0528 109.32 10.7778 110.059 10.7778C110.87 10.7778 111.438 11.0441 111.761 11.5778H111.787V8.19531H113.132V15.2041C113.132 15.7778 113.147 16.3066 113.179 16.7916ZM111.787 14.3066V13.3241C111.787 13.1541 111.774 13.0166 111.75 12.9116C111.674 12.5966 111.511 12.3316 111.264 12.1178C111.014 11.9041 110.713 11.7966 110.365 11.7966C109.864 11.7966 109.472 11.9903 109.183 12.3791C108.897 12.7678 108.752 13.2641 108.752 13.8703C108.752 14.4528 108.89 14.9253 109.165 15.2891C109.456 15.6766 109.849 15.8703 110.34 15.8703C110.781 15.8703 111.133 15.7091 111.401 15.3853C111.66 15.0866 111.787 14.7266 111.787 14.3066Z" fill="white"/>
<path d="M124.673 13.7948C124.673 14.7011 124.408 15.4436 123.877 16.0261C123.321 16.6248 122.585 16.9236 121.663 16.9236C120.777 16.9236 120.071 16.6373 119.542 16.0623C119.017 15.4886 118.754 14.7648 118.754 13.8923C118.754 12.9798 119.024 12.2311 119.568 11.6498C120.112 11.0686 120.842 10.7773 121.764 10.7773C122.65 10.7773 123.364 11.0636 123.903 11.6373C124.415 12.1948 124.673 12.9148 124.673 13.7948ZM123.281 13.8373C123.281 13.2936 123.16 12.8273 122.921 12.4386C122.637 11.9686 122.237 11.7336 121.714 11.7336C121.176 11.7336 120.765 11.9686 120.482 12.4386C120.241 12.8273 120.122 13.3011 120.122 13.8611C120.122 14.4048 120.242 14.8711 120.482 15.2598C120.773 15.7298 121.178 15.9648 121.701 15.9648C122.214 15.9648 122.618 15.7261 122.908 15.2473C123.155 14.8511 123.281 14.3811 123.281 13.8373Z" fill="white"/>
<path d="M131.896 16.7897H130.553V13.4147C130.553 12.3747 130.148 11.8547 129.334 11.8547C128.936 11.8547 128.614 11.9972 128.365 12.2834C128.116 12.5697 127.992 12.9072 127.992 13.2934V16.7884H126.647V12.5809C126.647 12.0634 126.632 11.5022 126.6 10.8947H127.779L127.842 11.8159H127.879C128.037 11.5297 128.27 11.2934 128.575 11.1047C128.941 10.8847 129.347 10.7734 129.794 10.7734C130.357 10.7734 130.827 10.9509 131.2 11.3072C131.665 11.7434 131.896 12.3947 131.896 13.2597V16.7897Z" fill="white"/>
<path d="M140.939 11.8765H139.459V14.739C139.459 15.4665 139.722 15.8302 140.242 15.8302C140.483 15.8302 140.683 15.8102 140.841 15.769L140.876 16.7627C140.61 16.8602 140.262 16.909 139.832 16.909C139.301 16.909 138.889 16.7515 138.59 16.4365C138.29 16.1215 138.141 15.5915 138.141 14.8477V11.8765H137.258V10.8952H138.141V9.81523L139.458 9.42773V10.894H140.937V11.8765H140.939Z" fill="white"/>
<path d="M148.052 16.7916H146.708V13.4416C146.708 12.3853 146.302 11.8566 145.491 11.8566C144.868 11.8566 144.442 12.1628 144.209 12.7753C144.169 12.9041 144.146 13.0616 144.146 13.2466V16.7903H142.804V8.19531H144.146V11.7466H144.172C144.595 11.1003 145.201 10.7778 145.987 10.7778C146.543 10.7778 147.004 10.9553 147.369 11.3116C147.824 11.7553 148.052 12.4153 148.052 13.2878V16.7916Z" fill="white"/>
<path d="M155.392 13.5644C155.392 13.7994 155.374 13.9969 155.342 14.1581H151.312C151.33 14.7406 151.522 15.1844 151.895 15.4919C152.237 15.7669 152.676 15.9044 153.215 15.9044C153.811 15.9044 154.354 15.8119 154.844 15.6256L155.054 16.5356C154.481 16.7781 153.807 16.8994 153.026 16.8994C152.09 16.8994 151.353 16.6306 150.82 16.0931C150.284 15.5556 150.019 14.8344 150.019 13.9294C150.019 13.0406 150.266 12.3006 150.765 11.7106C151.285 11.0806 151.989 10.7656 152.878 10.7656C153.747 10.7656 154.407 11.0806 154.853 11.7106C155.213 12.2106 155.392 12.8294 155.392 13.5644ZM154.11 13.2256C154.12 12.8369 154.031 12.5019 153.849 12.2194C153.616 11.8556 153.261 11.6731 152.78 11.6731C152.342 11.6731 151.984 11.8506 151.711 12.2069C151.488 12.4906 151.356 12.8294 151.312 13.2256H154.11Z" fill="white"/>
</svg>
